<svg xmlns="http://www.w3.org/2000/svg" viewBox="0 0 32.99 51.15"><defs><style>.cls-1,.cls-2,.cls-3,.cls-6,.cls-7{fill:none;stroke-miterlimit:10;}.cls-1{stroke:#333;stroke-width:2px;}.cls-2,.cls-3{stroke:#999;}.cls-3{stroke-width:0.8px;}.cls-4{fill:#a6a3d1;}.cls-5{font-size:6px;font-family:MyriadPro-BoldSemiExt, Myriad Pro;font-weight:700;letter-spacing:-0.02em;}.cls-5,.cls-8{fill:#c1272d;}.cls-6,.cls-7{stroke:#c1272d;stroke-width:1.5px;}.cls-7{stroke-dasharray:1.03 1.03;}</style></defs><g id="Capa_2" data-name="Capa 2"><g id="ENCODER"><circle class="cls-1" cx="12.12" cy="21.02" r="11.12"/><path class="cls-2" d="M5.66,24.21a9.06,9.06,0,0,1-1.32-6,8.82,8.82,0,0,1,1.94-4.41"/><path class="cls-2" d="M18,13.91a8.88,8.88,0,0,1,2.24,5.61,8.72,8.72,0,0,1-1.18,4.6"/><path class="cls-3" d="M9.49,22.49a5.66,5.66,0,0,1-.86-3.61,5.06,5.06,0,0,1,1.09-2.62"/><path class="cls-3" d="M14.25,16.28a5.63,5.63,0,0,1,1.4,3.43A5.16,5.16,0,0,1,15,22.47"/><path class="cls-4" d="M6.39,41.61c1.46-1.59,3.1-1,5.3-.63,1.88.29,3.74-.24,3.62-1.26a23.56,23.56,0,0,0-1.1-4.52c-.5-1.7-1.44-4.76-2.31-7.69-1.15-3.91-1.49-5.73,0-6.19s2.61,1.88,3.47,5.14c1,3.72,1.5,5.36,1.78,5.27.51-.15-.18-1.74,1.15-2.13,1.66-.48,2,.82,2.45.69s.31-1.46,1.64-1.85,2,1.26,2.55,1.1.53-.76,1.35-1,3.93,1.14,5.7,7.2c2.23,7.62-.28,9,.48,11.62l-9.94,3.78c-.8-1.94-3.29-2.08-5.5-3.31s-3.73-3.69-9.52-3.57C5.39,44.31,5.49,42.58,6.39,41.61Z"/><text class="cls-5" transform="translate(4.86 5.02)">PUSH</text><line class="cls-6" x1="12.63" y1="5.51" x2="12.63" y2="6.01"/><line class="cls-7" x1="12.63" y1="7.04" x2="12.61" y2="16.83"/><line class="cls-6" x1="12.61" y1="17.34" x2="12.61" y2="17.84"/><polygon class="cls-8" points="9.99 17.07 12.6 21.61 15.23 17.08 9.99 17.07"/></g></g></svg>