<svg xmlns="http://www.w3.org/2000/svg" viewBox="0 0 40.86 40.17"><defs><style>.cls-1,.cls-3,.cls-4{fill:none;stroke-miterlimit:10;}.cls-1{stroke:#333;stroke-width:2px;}.cls-2{fill:#a6a3d1;}.cls-3,.cls-4{stroke:#c1272d;stroke-width:1.5px;}.cls-4{stroke-dasharray:0.97 0.97;}.cls-5,.cls-6{fill:#c1272d;}.cls-6{font-size:6px;font-family:MyriadPro-BoldSemiExt, Myriad Pro;font-weight:700;letter-spacing:-0.02em;}</style></defs><g id="Capa_2" data-name="Capa 2"><g id="ENCODER"><circle class="cls-1" cx="12.12" cy="20.33" r="11.12"/><path class="cls-2" d="M14.26,30.63c1.47-1.58,3.11-1,5.3-.63,1.89.29,3.75-.24,3.62-1.26a23.8,23.8,0,0,0-1.09-4.52c-.5-1.7-1.45-4.76-2.31-7.68-1.16-3.92-1.49-5.74,0-6.19s2.61,1.87,3.47,5.14c1,3.71,1.49,5.35,1.78,5.27.51-.15-.19-1.74,1.15-2.13,1.66-.49,2,.81,2.45.68s.31-1.45,1.63-1.84,2,1.26,2.56,1.09.53-.75,1.35-1,3.92,1.15,5.7,7.21c2.23,7.62-.28,9,.48,11.61l-9.94,3.78c-.81-1.93-3.3-2.08-5.5-3.31s-3.73-3.68-9.52-3.57C13.26,33.34,13.36,31.6,14.26,30.63Z"/><path class="cls-3" d="M5.08,23.83c-.06-.16-.13-.31-.19-.47"/><path class="cls-4" d="M4.59,22.44a8.13,8.13,0,0,1,1.35-7.31,8.2,8.2,0,0,1,8.49-2.5"/><path class="cls-3" d="M14.9,12.77l.47.16"/><polygon class="cls-5" points="6.47 22.38 6.5 26.12 3.25 24.27 6.47 22.38"/><polygon class="cls-5" points="14.02 14.43 17.75 14.2 15.68 11.08 14.02 14.43"/><text class="cls-6" transform="translate(4.66 5.02)">TURN</text></g></g></svg>