<svg xmlns="http://www.w3.org/2000/svg" viewBox="0 0 34.49 39.7"><defs><style>.cls-1,.cls-2,.cls-3,.cls-5{fill:none;}.cls-1,.cls-2,.cls-3{stroke:#000;}.cls-1,.cls-2,.cls-3,.cls-5,.cls-6{stroke-miterlimit:10;}.cls-1{opacity:0.75;}.cls-2{stroke-width:0.63px;opacity:0.6;}.cls-3,.cls-5,.cls-6{stroke-width:0.5px;}.cls-3{opacity:0.45;}.cls-4{fill:#a6a3d1;}.cls-5,.cls-6{stroke:#c1272d;}.cls-6{fill:#ed1c24;}.cls-7{font-size:6px;fill:#c1272d;font-family:MyriadPro-BoldSemiExt, Myriad Pro;font-weight:700;letter-spacing:-0.05em;}.cls-8{letter-spacing:-0.02em;}</style></defs><g id="Capa_2" data-name="Capa 2"><g id="TOUCH"><circle class="cls-1" cx="9.81" cy="9.81" r="2.31"/><circle class="cls-2" cx="9.81" cy="9.81" r="6.08"/><circle class="cls-3" cx="9.81" cy="9.81" r="9.56"/><path class="cls-4" d="M4.33,30.16c1.47-1.58,3.11-1,5.3-.63,1.89.29,3.75-.24,3.62-1.26a23.62,23.62,0,0,0-1.09-4.52c-.5-1.7-1.45-4.76-2.31-7.69-1.16-3.91-1.49-5.73.05-6.18s2.6,1.87,3.47,5.13c1,3.72,1.49,5.36,1.78,5.27.51-.14-.19-1.73,1.14-2.12,1.67-.49,2,.81,2.46.68s.3-1.45,1.63-1.84,2,1.25,2.56,1.09.53-.75,1.35-1,3.92,1.14,5.7,7.21c2.22,7.62-.28,9,.48,11.61L20.53,39.7c-.81-1.93-3.3-2.08-5.5-3.31S11.3,32.7,5.51,32.82C3.33,32.87,3.43,31.13,4.33,30.16Z"/><line class="cls-5" x1="10.98" y1="8.99" x2="13.28" y2="7.07"/><line class="cls-6" x1="9.81" y1="8.99" x2="7.97" y2="5.82"/><line class="cls-6" x1="8.89" y1="9.81" x2="5.45" y2="9.81"/><text class="cls-7" transform="translate(14.02 5.82)">T<tspan class="cls-8" x="3.27" y="0">OUCH</tspan></text></g></g></svg>