<svg id="Capa_1" data-name="Capa 1" xmlns="http://www.w3.org/2000/svg" viewBox="0 0 247.62 91.05"><defs><style>.cls-1{fill:#000002;}.cls-1,.cls-2{fill-rule:evenodd;}.cls-2{fill:#f47b20;}</style></defs><title>LOGO SOLIDYNE SD</title><path class="cls-1" d="M507.66,299.89q0,12.59-7.84,20.49t-20.47,7.9H389.74V305.6h72.57a7.73,7.73,0,0,0,4.8-1.49,4.94,4.94,0,0,0,2-4.21,4.86,4.86,0,0,0-2-4.14,7.81,7.81,0,0,0-4.76-1.49H418.13q-12.7,0-20.54-7.84t-7.84-20.54q0-12.7,7.84-20.5t20.54-7.8h89.54v22.68H435.1a7.7,7.7,0,0,0-4.72,1.55,4.84,4.84,0,0,0-2.08,4.08,5.06,5.06,0,0,0,2.17,4.25,7.44,7.44,0,0,0,4.63,1.45h44.26q12.7,0,20.5,7.8T507.66,299.89Z" transform="translate(-389.74 -237.56)"/><polygon class="cls-2" points="153.57 29.97 144.46 37.02 129.26 37.02 129.26 0 153.57 22.76 153.57 29.97"/><path class="cls-1" d="M591.84,260.33H543.31L519,237.56h72.84q20.85,0,33.19,12.33t12.33,33.19q0,20.77-12.39,33.14t-33.14,12.39H519l24.31-22.76h48.52c2.43,0,4.57-1.34,6.47-4a12.64,12.64,0,0,0,2.64-7.38V271.71a12.63,12.63,0,0,0-2.64-7.38C596.41,261.67,594.26,260.33,591.84,260.33Z" transform="translate(-389.74 -237.56)"/><polygon class="cls-2" points="153.57 61.07 144.46 54.03 129.26 54.03 129.26 91.05 153.57 68.28 153.57 61.07"/><path class="cls-2" d="M553.2,260.33v45.52h38.64c2.43,0,4.57-1.34,6.47-4a12.64,12.64,0,0,0,2.64-7.38V271.71a12.63,12.63,0,0,0-2.64-7.38c-1.9-2.66-4-4-6.47-4H553.2Z" transform="translate(-389.74 -237.56)"/><path class="cls-1" d="M588.28,267.54H560.17v5.34h10.65v2.22H560.17v2.36h10.65v2.19H560.17V282l10.65,0v2.07l-10.65,0v2.32h10.65v2.26l-10.65,0V291h10.65v2.3H560.17v5.36h28.11V267.54Z" transform="translate(-389.74 -237.56)"/></svg>