<svg id="Capa_1" data-name="Capa 1" xmlns="http://www.w3.org/2000/svg" viewBox="0 0 247.62 91.05"><defs><style>.cls-1{fill:#fff;}.cls-1,.cls-2{fill-rule:evenodd;}.cls-2{fill:#f47b20;}</style></defs><title>LOGO SOLIDYNE SD NEGATIVO</title><path class="cls-1" d="M507.71,295.15q0,12.58-7.84,20.49t-20.47,7.9H389.79V300.86h72.57a7.73,7.73,0,0,0,4.8-1.49,4.94,4.94,0,0,0,2-4.21,4.86,4.86,0,0,0-2-4.14,7.81,7.81,0,0,0-4.76-1.49H418.17q-12.7,0-20.54-7.84t-7.84-20.54q0-12.7,7.84-20.5t20.54-7.8h89.54v22.68H435.14a7.7,7.7,0,0,0-4.72,1.55,4.84,4.84,0,0,0-2.08,4.08,5.06,5.06,0,0,0,2.17,4.25,7.44,7.44,0,0,0,4.63,1.45H479.4q12.7,0,20.5,7.8T507.71,295.15Z" transform="translate(-389.79 -232.66)"/><polygon class="cls-2" points="153.57 29.97 144.46 37.02 129.26 37.02 129.26 0 153.57 22.76 153.57 29.97"/><path class="cls-1" d="M591.88,255.42H543.36L519,232.66h72.84q20.85,0,33.19,12.33t12.33,33.19q0,20.77-12.39,33.14t-33.14,12.39H519l24.31-22.76h48.52c2.43,0,4.57-1.34,6.47-4a12.64,12.64,0,0,0,2.64-7.38V266.8a12.63,12.63,0,0,0-2.64-7.38C596.45,256.76,594.31,255.42,591.88,255.42Z" transform="translate(-389.79 -232.66)"/><polygon class="cls-2" points="153.57 61.07 144.46 54.03 129.26 54.03 129.26 91.05 153.57 68.28 153.57 61.07"/><path class="cls-2" d="M553.24,255.42v45.52h38.64c2.43,0,4.57-1.34,6.47-4a12.64,12.64,0,0,0,2.64-7.38V266.8a12.63,12.63,0,0,0-2.64-7.38c-1.9-2.66-4-4-6.47-4H553.24Z" transform="translate(-389.79 -232.66)"/><path class="cls-1" d="M588.32,262.64H560.21V268h10.65v2.22H560.21v2.36h10.65v2.19H560.21v2.41l10.65,0v2.07l-10.65,0v2.32h10.65v2.26l-10.65,0v2.19h10.65v2.3H560.21v5.36h28.11V262.64Z" transform="translate(-389.79 -232.66)"/></svg>