<svg xmlns="http://www.w3.org/2000/svg" viewBox="0 0 670.57 59.97"><defs><style>.cls-1{fill:#e6e7e8;}.cls-1,.cls-3{fill-rule:evenodd;}.cls-2{fill:#e6e6e6;}.cls-3{fill:#f58220;}</style></defs><g id="Capa_2" data-name="Capa 2"><g id="Capa_1-2" data-name="Capa 1"><path class="cls-1" d="M613.79,59.79l54.8-.06,0-13.54h-52.1c-7.1-.18-8.09-2.67-8.14-9.53l44.4-.36c1.12-.86.37,0,1.48-1.53l5.68-11.57L608.44,23c-.1-6,.65-9,6.72-9.29l49,.24L670.57.25l-55.41,0c-26.45-.11-26,9.76-26,29.14C589.09,48,587.61,59.87,613.79,59.79Z"/><path class="cls-2" d="M163.55,29.91c0,4.14-.08,8.21-.2,9.66-.61,7.53-6.93,6.41-14.14,6.54-6.87,0-13.74,0-20.61,0-7.58-.15-13.92,1.31-14.8-5.73-.2-1.6-.31-6-.32-10.45H93.55c0,8.15.58,16.67,1.75,19.42,4.1,9.58,11.11,10.44,23.44,10.46s28.42,0,40.79,0S180,56.22,182.46,45.85c.62-2.58.89-9.14.81-15.94Zm-49.79-10c.91-7.22,7.08-6.05,14.14-6.16,6.9,0,13.72,0,20.6,0,6.73.1,13.59-1,14.74,5.67.23,1.36.32,6,.31,10.54h19.72c.08-6.81-.19-13.36-.81-15.95C180,3.59,171.77,0,159.53,0s-28.41,0-40.79,0S99.4.9,95.3,10.48c-1.17,2.75-1.73,11.27-1.75,19.43h19.93C113.48,25.64,113.57,21.41,113.76,19.87Z"/><path class="cls-1" d="M0,46.34v13.4H69.05c7.64,0,13.16-4.24,13.16-10.24V33.4c0-5.92-5.52-10.1-13.16-10.11H21.69a3,3,0,0,1-2.38-1.24,5.52,5.52,0,0,1-1.12-3.61A5.31,5.31,0,0,1,19.26,15a3.11,3.11,0,0,1,2.43-1.32l60.52,0V.25h-69C5.52.26,0,4.44,0,10.35V26.46c0,6,5.52,10.23,13.17,10.24H60.52A3.19,3.19,0,0,1,63,38,5.3,5.3,0,0,1,64,41.5a5.54,5.54,0,0,1-1.12,3.61,3,3,0,0,1-2.38,1.23Z"/><path class="cls-1" d="M390.21,38.87C390,54.76,381.41,59.72,366,59.74l-59.35-.18.1-37.44,19.3-.09.15,24.31H362c7.93,0,9-5.66,8.91-8.08V21.4c.05-2.09-1-7.75-8.91-7.75h-55.3V.09L366,.23c15.39,0,24,5,24.19,20.26Z"/><path class="cls-1" d="M263.78,59.74H211.22a16.14,16.14,0,0,1-12.46-5.15Q194,49.43,194,41.1V.17l20,.07-.31,36.46c0,1.62-.07,5.2,1.33,7,1.89,2.39,5.11,2.56,6.58,2.56l42.19.12Z"/><path class="cls-1" d="M389.75.17c2.2,2.15,23.5,22.46,28.77,27.5,4.32,4.12,8.67,6.67,8.66,10V59.42l22.51-.1V41.7c-.06-5.54-.83-5.64,2.48-8.57l34.91-33s-18.46,0-19.35,0c-7,.12-7.09-.67-11.16,3.36-2.89,2.88-16,15.71-18.64,16.87L420.76,3.34C418,.52,418.45.17,412.85.17Z"/><path class="cls-1" d="M577.51,44.49c0,4.11.57,10-2,13-2.92,3.33-8.28,2.49-12.19,2-2.8-.29-6.78-3-9.51-4.82l-45.32-29.9-.18,35-19.75,0V15.14c0-4.48-.84-9.84,1.92-12.68S496.33.22,501.06.25c2.63,0,5,1.78,7.38,3.32l3.39,2.23L558,36.34,557.88.25l19.63,0V44.49ZM488.39,59.68v0Z"/><path class="cls-3" d="M294.84,11.09c-6.19,3.86-14.25,3.52-20.64,0V2.82A2.64,2.64,0,0,1,276.86.2H292.2a2.64,2.64,0,0,1,2.64,2.62Z"/><path class="cls-1" d="M295,59.63l-.12-42.58c-6.19,4-14.1,3.65-20.5,0v42.7Z"/></g></g></svg>