<svg id="Capa_1" data-name="Capa 1" xmlns="http://www.w3.org/2000/svg" viewBox="0 0 910.43 91.05"><defs><style>.cls-1,.cls-2{fill:#000002;}.cls-1,.cls-3{fill-rule:evenodd;}.cls-3{fill:#f47b20;}</style></defs><title>LOGO SOLIDYNE</title><path class="cls-1" d="M1016.23,341.28h-63.5q-20.69,0-33-12.34t-12.34-33q0-20.78,12.28-33.07t33.07-12.28h63.5v22.68h-63.5c-2.42,0-4.57,1.32-6.44,4a12.42,12.42,0,0,0-2.63,7.35h49.89v22.68H943.67a12.42,12.42,0,0,0,2.63,7.35c1.87,2.66,4,4,6.44,4h63.5v22.68Z" transform="translate(-105.8 -250.58)"/><path class="cls-1" d="M896,318.61q0,10.26-6.22,16.46t-16.46,6.22a22.16,22.16,0,0,1-13.61-4.54l-54.42-40.82v45.35H769.05v-68q0-10.26,6.22-16.46t16.46-6.22a22.16,22.16,0,0,1,13.61,4.54L859.76,296V250.58H896v68Z" transform="translate(-105.8 -250.58)"/><polygon class="cls-1" points="651.91 10.17 607.65 54.42 607.65 90.71 571.37 90.71 571.37 54.42 526.01 9.07 526.01 0 561.2 0 589.51 28.31 617.89 0 651.91 0 651.91 10.17"/><rect class="cls-2" x="368.54" width="36.28" height="90.71"/><path class="cls-1" d="M463,341.28H409.75q-12.7,0-20.54-7.84t-7.84-20.54V250.58h36.28v56.69a12.42,12.42,0,0,0,2.63,7.35c1.87,2.66,4,4,6.44,4H463v22.68Z" transform="translate(-105.8 -250.58)"/><path class="cls-1" d="M333.71,307.27V284.59a12.42,12.42,0,0,0-2.63-7.35c-1.87-2.66-4-4-6.44-4H280.42c-2.42,0-4.57,1.32-6.44,4a12.42,12.42,0,0,0-2.63,7.35v22.68a12.42,12.42,0,0,0,2.63,7.35c1.87,2.66,4,4,6.44,4h44.22c2.42,0,4.57-1.32,6.44-4a12.42,12.42,0,0,0,2.63-7.35h0ZM370,295.93q0,20.78-12.28,33.07t-33.05,12.28H280.4q-20.66,0-33-12.34t-12.34-33q0-20.78,12.28-33.07t33.05-12.28h44.26q20.75,0,33.05,12.28T370,295.93Z" transform="translate(-105.8 -250.58)"/><path class="cls-1" d="M223.72,312.9q0,12.59-7.84,20.48t-20.47,7.9H105.8V318.61h72.57a7.73,7.73,0,0,0,4.8-1.49,4.94,4.94,0,0,0,2-4.21,4.86,4.86,0,0,0-2-4.14,7.81,7.81,0,0,0-4.76-1.49H134.19q-12.7,0-20.54-7.84t-7.84-20.54q0-12.7,7.84-20.5t20.54-7.8h89.54v22.68H151.16a7.7,7.7,0,0,0-4.72,1.55,4.84,4.84,0,0,0-2.08,4.08,5.06,5.06,0,0,0,2.17,4.25,7.44,7.44,0,0,0,4.63,1.46h44.26q12.7,0,20.5,7.8T223.72,312.9Z" transform="translate(-105.8 -250.58)"/><polygon class="cls-3" points="440.48 29.97 431.37 37.02 416.16 37.02 416.16 0 440.48 22.76 440.48 29.97"/><path class="cls-1" d="M594.8,273.34H546.28L522,250.58H594.8q20.85,0,33.19,12.33t12.33,33.19q0,20.77-12.39,33.14T594.8,341.62H522l24.31-22.76H594.8c2.43,0,4.57-1.34,6.47-4a12.64,12.64,0,0,0,2.64-7.38V284.72a12.63,12.63,0,0,0-2.64-7.38C599.37,274.68,597.23,273.34,594.8,273.34Z" transform="translate(-105.8 -250.58)"/><polygon class="cls-3" points="440.48 61.07 431.37 54.03 416.16 54.03 416.16 91.05 440.48 68.28 440.48 61.07"/><path class="cls-3" d="M556.16,273.34v45.52H594.8c2.43,0,4.57-1.34,6.47-4a12.64,12.64,0,0,0,2.64-7.38V284.72a12.63,12.63,0,0,0-2.64-7.38c-1.9-2.66-4-4-6.47-4H556.16Z" transform="translate(-105.8 -250.58)"/><path class="cls-1" d="M591.24,280.55H563.13v5.34h10.65v2.22H563.13v2.36h10.65v2.19H563.13v2.41l10.65,0v2.07l-10.65,0v2.32h10.65v2.26l-10.65,0V304h10.65v2.3H563.13v5.36h28.11V280.55Z" transform="translate(-105.8 -250.58)"/></svg>