<svg xmlns="http://www.w3.org/2000/svg" viewBox="0 0 670.57 59.95"><defs><style>.cls-1{fill:#414042;}.cls-1,.cls-2{fill-rule:evenodd;}.cls-2{fill:#f58220;}</style></defs><g id="Capa_2" data-name="Capa 2"><g id="Capa_1-2" data-name="Capa 1"><path class="cls-1" d="M183.27,29.91c.08-6.81-.19-13.36-.81-15.95C180,3.59,171.77,0,159.53,0s-28.41,0-40.79,0S99.4.9,95.3,10.48c-1.17,2.75-1.73,11.27-1.75,19.43s.58,16.67,1.75,19.42c4.1,9.58,11.11,10.44,23.44,10.46s28.42,0,40.79,0S180,56.22,182.46,45.85c.62-2.58.89-9.14.81-15.94Zm-19.72,0c0,4.14-.08,8.21-.2,9.67-.61,7.52-6.93,6.4-14.14,6.53-6.87,0-13.74,0-20.61,0-7.58-.15-13.92,1.31-14.8-5.72-.21-1.61-.31-6.06-.32-10.46s.09-8.5.28-10h0c.91-7.22,7.08-6.05,14.14-6.16,6.9,0,13.72,0,20.6,0,6.73.1,13.59-1,14.74,5.67C163.47,20.73,163.56,25.36,163.55,29.91Z"/><path class="cls-1" d="M613.79,59.77l54.8-.06,0-13.54h-52.1c-7.1-.18-8.09-2.67-8.14-9.52l44.4-.36c1.12-.86.37,0,1.48-1.53l5.68-11.58L608.44,23c-.1-6,.65-9,6.72-9.28l49,.23L670.57.23l-55.41,0c-26.45-.11-26,9.75-26,29.14C589.09,48,587.61,59.85,613.79,59.77Z"/><path class="cls-1" d="M0,46.32v13.4H69c7.65,0,13.17-4.25,13.17-10.25V33.38c0-5.92-5.52-10.1-13.17-10.1H21.69A3,3,0,0,1,19.31,22a5.57,5.57,0,0,1-1.12-3.62A5.33,5.33,0,0,1,19.26,15a3.11,3.11,0,0,1,2.43-1.32l60.52,0V.23h-69C5.52.24,0,4.42,0,10.34v16.1c0,6,5.52,10.24,13.17,10.24l47.35,0A3.13,3.13,0,0,1,63,38,5.25,5.25,0,0,1,64,41.48a5.52,5.52,0,0,1-1.12,3.61,3,3,0,0,1-2.38,1.23Z"/><path class="cls-1" d="M390.21,38.85C390,54.75,381.41,59.7,366,59.72l-59.35-.18.1-37.44,19.3-.09.15,24.31H362c7.93,0,9-5.66,8.91-8.08V21.39c.05-2.1-1-7.76-8.91-7.76h-55.3V.08L366,.21c15.39,0,24,5,24.19,20.26Z"/><path class="cls-1" d="M263.78,59.72H211.22a16.14,16.14,0,0,1-12.46-5.15Q194,49.41,194,41.08V.15l20,.07-.31,36.46c0,1.62-.07,5.2,1.33,7,1.89,2.39,5.11,2.56,6.58,2.56l42.19.12Z"/><path class="cls-1" d="M389.75.15c2.2,2.15,23.5,22.46,28.77,27.5,4.32,4.13,8.67,6.68,8.66,10V59.41l22.51-.11V41.68c-.06-5.54-.83-5.64,2.48-8.57l34.91-33s-18.47,0-19.35,0c-7,.11-7.09-.67-11.16,3.35-2.89,2.88-16,15.72-18.64,16.88L420.76,3.32C418,.5,418.45.15,412.85.16Z"/><path class="cls-1" d="M577.5,44.48c0,4.11.58,10-2,13-2.92,3.33-8.28,2.5-12.19,2-2.8-.3-6.78-3-9.51-4.83l-45.32-29.9-.18,35-19.75,0V15.12c0-4.48-.84-9.83,1.92-12.68S496.33.2,501.06.23c2.63,0,5,1.79,7.37,3.32l3.4,2.23L558,36.32,557.88.23l19.62,0V44.48ZM488.39,59.67h0v0Z"/><path class="cls-2" d="M294.84,11.07c-6.19,3.87-14.25,3.52-20.64,0V2.8A2.64,2.64,0,0,1,276.86.18H292.2a2.64,2.64,0,0,1,2.64,2.62Z"/><path class="cls-1" d="M295,59.61,294.84,17c-6.19,4-14.1,3.66-20.5,0v42.7Z"/></g></g></svg>