<?xml version="1.0" encoding="utf-8"?>
<!-- Generator: Adobe Illustrator 26.0.0, SVG Export Plug-In . SVG Version: 6.00 Build 0)  -->
<svg version="1.1" id="Capa_1" xmlns="http://www.w3.org/2000/svg" xmlns:xlink="http://www.w3.org/1999/xlink" x="0px" y="0px"
	 viewBox="0 0 910.4 91.1" style="enable-background:new 0 0 910.4 91.1;" xml:space="preserve">
<style type="text/css">
	.st0{fill-rule:evenodd;clip-rule:evenodd;fill:#FFFFFF;}
	.st1{fill:#FFFFFF;}
</style>
<path class="st0" d="M909.4,90.7h-63.5c-13.8,0-24.8-4.1-33-12.3s-12.3-19.2-12.3-33c0-13.9,4.1-24.9,12.3-33.1
	c8.2-8.2,19.2-12.3,33-12.3h63.5v22.7h-63.5c-2.4,0-4.6,1.3-6.4,4c-1.6,2.1-2.6,4.7-2.6,7.4h49.9v22.7h-49.9c0.1,2.7,1,5.2,2.6,7.4
	c1.9,2.7,4,4,6.4,4h63.5V90.7L909.4,90.7z"/>
<path class="st0" d="M789.2,68c0,6.8-2.1,12.3-6.2,16.5c-4.1,4.1-9.6,6.2-16.5,6.2c-4.9,0-9.7-1.6-13.6-4.5l-54.4-40.8v45.4h-36.2
	v-68c0-6.8,2.1-12.3,6.2-16.5c4.1-4.1,9.6-6.2,16.5-6.2c4.9,0,9.7,1.6,13.6,4.5L753,45.4V0h36.2V68L789.2,68z"/>
<polygon class="st0" points="661.9,10.2 617.7,54.4 617.7,90.7 581.4,90.7 581.4,54.4 536,9.1 536,0 571.2,0 599.5,28.3 627.9,0 
	661.9,0 "/>
<rect x="371.5" y="0" class="st1" width="36.3" height="90.7"/>
<path class="st0" d="M360.2,90.7H307c-8.5,0-15.3-2.6-20.5-7.8s-7.8-12.1-7.8-20.5V0H315v56.7c0.1,2.7,1,5.2,2.6,7.4
	c1.9,2.7,4,4,6.4,4h36.3L360.2,90.7L360.2,90.7z"/>
<path class="st0" d="M230.9,56.7V34c-0.1-2.7-1-5.2-2.6-7.4c-1.9-2.7-4-4-6.4-4h-44.2c-2.4,0-4.6,1.3-6.4,4
	c-1.6,2.1-2.6,4.7-2.6,7.4v22.7c0.1,2.7,1,5.2,2.6,7.4c1.9,2.7,4,4,6.4,4h44.2c2.4,0,4.6-1.3,6.4-4
	C229.9,61.9,230.8,59.4,230.9,56.7L230.9,56.7L230.9,56.7z M267.2,45.3c0,13.9-4.1,24.9-12.3,33.1s-19.2,12.3-33,12.3h-44.3
	c-13.8,0-24.8-4.1-33-12.3s-12.3-19.2-12.3-33c0-13.9,4.1-24.9,12.3-33.1S163.8,0,177.6,0h44.3c13.8,0,24.9,4.1,33,12.3
	C263.1,20.5,267.2,31.5,267.2,45.3z"/>
<path class="st0" d="M120.9,62.3c0,8.4-2.6,15.2-7.8,20.5s-12.1,7.9-20.5,7.9H3V68h72.6c1.7,0.1,3.4-0.5,4.8-1.5
	c1.3-1,2.1-2.6,2-4.2c0.1-1.6-0.7-3.2-2-4.1c-1.4-1-3.1-1.5-4.8-1.5H31.4c-8.5,0-15.3-2.6-20.5-7.8S3,36.8,3,28.3S5.6,13,10.8,7.8
	C16.1,2.6,22.9,0,31.4,0h89.5v22.7H48.4c-1.7,0-3.4,0.5-4.7,1.5c-1.3,0.9-2.1,2.5-2.1,4.1c0,1.7,0.8,3.3,2.2,4.2
	c1.3,1,3,1.5,4.6,1.5h44.3c8.5,0,15.3,2.6,20.5,7.8C118.3,47,120.9,53.9,120.9,62.3z"/>
<polyline class="st0" points="419.2,0 455.3,22.8 455.3,35 446.2,43 419.2,43 "/>
<path class="st0" d="M492,22.8h-48.5L419.2,0H492c13.9,0,25,4.1,33.2,12.3s12.3,19.3,12.3,33.2c0,13.8-4.1,24.9-12.4,33.1
	S505.8,91,492,91h-72.8l24.3-22.8H492c2.4,0,4.6-1.3,6.5-4c1.6-2.1,2.6-4.7,2.6-7.4V34.1c-0.1-2.7-1-5.3-2.6-7.4
	C496.6,24.1,494.4,22.8,492,22.8z"/>
<polygon class="st0" points="455.4,56 446.3,48 419.2,48 419.2,91 455.4,68.3 "/>
</svg>
